<svg xmlns="http://www.w3.org/2000/svg" width="396.6" height="35" viewBox="0 0 396.6 35"><rect class="svg__rect" x="0" y="0" width="185.07" height="35" fill="#31C4F3"/><rect class="svg__rect" x="183.07" y="0" width="213.53000000000003" height="35" fill="#389AD5"/><path class="svg__text" d="M15.69 22L14.22 22L14.22 13.47L16.14 13.47L18.60 20.01L21.06 13.47L22.97 13.47L22.97 22L21.49 22L21.49 19.19L21.64 15.43L19.12 22L18.06 22L15.55 15.43L15.69 19.19L15.69 22ZM28.49 22L26.95 22L30.17 13.47L31.50 13.47L34.73 22L33.18 22L32.49 20.01L29.18 20.01L28.49 22ZM30.83 15.28L29.60 18.82L32.07 18.82L30.83 15.28ZM38.42 18.19L38.42 18.19L38.42 17.39Q38.42 16.19 38.84 15.27Q39.27 14.35 40.07 13.85Q40.87 13.35 41.92 13.35L41.92 13.35Q43.33 13.35 44.19 14.12Q45.06 14.89 45.20 16.29L45.20 16.29L43.72 16.29Q43.61 15.37 43.18 14.96Q42.75 14.55 41.92 14.55L41.92 14.55Q40.95 14.55 40.43 15.26Q39.92 15.96 39.90 17.33L39.90 17.33L39.90 18.09Q39.90 19.47 40.40 20.20Q40.89 20.92 41.85 20.92L41.85 20.92Q42.72 20.92 43.16 20.53Q43.60 20.14 43.72 19.22L43.72 19.22L45.20 19.22Q45.07 20.59 44.19 21.35Q43.31 22.12 41.85 22.12L41.85 22.12Q40.83 22.12 40.05 21.63Q39.28 21.15 38.86 20.26Q38.43 19.37 38.42 18.19ZM50.99 22L49.51 22L49.51 13.47L50.99 13.47L50.99 17.02L54.81 17.02L54.81 13.47L56.28 13.47L56.28 22L54.81 22L54.81 18.21L50.99 18.21L50.99 22ZM62.59 22L61.11 22L61.11 13.47L62.59 13.47L62.59 22ZM68.88 22L67.40 22L67.40 13.47L68.88 13.47L72.69 19.54L72.69 13.47L74.16 13.47L74.16 22L72.68 22L68.88 15.95L68.88 22ZM84.48 22L78.90 22L78.90 13.47L84.44 13.47L84.44 14.66L80.39 14.66L80.39 17.02L83.89 17.02L83.89 18.19L80.39 18.19L80.39 20.82L84.48 20.82L84.48 22ZM100.01 22L94.65 22L94.65 13.47L96.14 13.47L96.14 20.82L100.01 20.82L100.01 22ZM109.71 22L104.14 22L104.14 13.47L109.67 13.47L109.67 14.66L105.62 14.66L105.62 17.02L109.12 17.02L109.12 18.19L105.62 18.19L105.62 20.82L109.71 20.82L109.71 22ZM114.69 22L113.15 22L116.37 13.47L117.70 13.47L120.93 22L119.38 22L118.68 20.01L115.38 20.01L114.69 22ZM117.03 15.28L115.80 18.82L118.27 18.82L117.03 15.28ZM126.37 22L124.88 22L124.88 13.47L127.88 13.47Q129.36 13.47 130.16 14.13Q130.97 14.79 130.97 16.05L130.97 16.05Q130.97 16.90 130.55 17.48Q130.14 18.06 129.40 18.37L129.40 18.37L131.32 21.92L131.32 22L129.73 22L128.02 18.71L126.37 18.71L126.37 22ZM126.37 14.66L126.37 17.52L127.89 17.52Q128.64 17.52 129.06 17.15Q129.48 16.77 129.48 16.11L129.48 16.11Q129.48 15.43 129.09 15.05Q128.70 14.68 127.93 14.66L127.93 14.66L126.37 14.66ZM136.84 22L135.36 22L135.36 13.47L136.84 13.47L140.66 19.54L140.66 13.47L142.13 13.47L142.13 22L140.64 22L136.84 15.95L136.84 22ZM148.43 22L146.96 22L146.96 13.47L148.43 13.47L148.43 22ZM154.72 22L153.24 22L153.24 13.47L154.72 13.47L158.54 19.54L158.54 13.47L160.01 13.47L160.01 22L158.53 22L154.72 15.95L154.72 22ZM164.50 18.13L164.50 18.13L164.50 17.46Q164.50 15.53 165.43 14.44Q166.36 13.35 168.01 13.35L168.01 13.35Q169.44 13.35 170.28 14.05Q171.11 14.76 171.28 16.08L171.28 16.08L169.83 16.08Q169.58 14.54 168.04 14.54L168.04 14.54Q167.05 14.54 166.53 15.26Q166.01 15.98 165.99 17.37L165.99 17.37L165.99 18.02Q165.99 19.40 166.58 20.17Q167.16 20.93 168.20 20.93L168.20 20.93Q169.33 20.93 169.81 20.42L169.81 20.42L169.81 18.75L168.06 18.75L168.06 17.62L171.29 17.62L171.29 20.89Q170.83 21.50 170.01 21.81Q169.19 22.12 168.14 22.12L168.14 22.12Q167.07 22.12 166.24 21.63Q165.42 21.14 164.97 20.24Q164.52 19.33 164.50 18.13Z" fill="#000000"/><path class="svg__text" d="M203.64 22L197.26 22L197.26 13.60L199.64 13.60L199.64 20.11L203.64 20.11L203.64 22ZM210.44 22L208.06 22L208.06 13.60L210.44 13.60L210.44 22ZM217.95 22L215.62 22L215.62 13.60L217.57 13.60L221.28 18.07L221.28 13.60L223.61 13.60L223.61 22L221.66 22L217.95 17.52L217.95 22ZM235.51 22L228.77 22L228.77 13.60L235.36 13.60L235.36 15.44L231.13 15.44L231.13 16.85L234.86 16.85L234.86 18.63L231.13 18.63L231.13 20.17L235.51 20.17L235.51 22ZM241.74 22L239.31 22L243.02 13.60L245.36 13.60L249.08 22L246.61 22L245.95 20.37L242.40 20.37L241.74 22ZM244.17 15.93L243.09 18.61L245.25 18.61L244.17 15.93ZM255.61 22L253.23 22L253.23 13.60L257.08 13.60Q258.22 13.60 259.06 13.98Q259.89 14.35 260.35 15.06Q260.81 15.76 260.81 16.71L260.81 16.71Q260.81 17.62 260.38 18.30Q259.95 18.98 259.16 19.36L259.16 19.36L260.97 22L258.43 22L256.91 19.77L255.61 19.77L255.61 22ZM255.61 15.47L255.61 17.93L256.93 17.93Q257.66 17.93 258.03 17.61Q258.41 17.29 258.41 16.71L258.41 16.71Q258.41 16.12 258.03 15.79Q257.66 15.47 256.93 15.47L256.93 15.47L255.61 15.47ZM274.95 22L272.57 22L272.57 13.60L276.41 13.60Q277.55 13.60 278.39 13.98Q279.23 14.35 279.69 15.06Q280.14 15.76 280.14 16.71L280.14 16.71Q280.14 17.62 279.72 18.30Q279.29 18.98 278.50 19.36L278.50 19.36L280.31 22L277.77 22L276.24 19.77L274.95 19.77L274.95 22ZM274.95 15.47L274.95 17.93L276.27 17.93Q277.00 17.93 277.37 17.61Q277.74 17.29 277.74 16.71L277.74 16.71Q277.74 16.12 277.37 15.79Q277.00 15.47 276.27 15.47L276.27 15.47L274.95 15.47ZM291.68 22L284.93 22L284.93 13.60L291.52 13.60L291.52 15.44L287.29 15.44L287.29 16.85L291.02 16.85L291.02 18.63L287.29 18.63L287.29 20.17L291.68 20.17L291.68 22ZM296.05 17.80L296.05 17.80Q296.05 16.54 296.65 15.54Q297.25 14.55 298.32 13.99Q299.39 13.43 300.73 13.43L300.73 13.43Q301.91 13.43 302.84 13.83Q303.78 14.22 304.40 14.97L304.40 14.97L302.89 16.33Q302.05 15.40 300.87 15.40L300.87 15.40Q300.86 15.40 300.85 15.40L300.85 15.40Q299.77 15.40 299.11 16.06Q298.45 16.71 298.45 17.80L298.45 17.80Q298.45 18.50 298.75 19.04Q299.05 19.59 299.59 19.89Q300.13 20.20 300.83 20.20L300.83 20.20Q301.51 20.20 302.11 19.93L302.11 19.93L302.11 17.62L304.21 17.62L304.21 21.10Q303.49 21.61 302.55 21.89Q301.62 22.17 300.68 22.17L300.68 22.17Q299.36 22.17 298.31 21.61Q297.25 21.05 296.65 20.05Q296.05 19.06 296.05 17.80ZM311.58 22L309.20 22L309.20 13.60L313.05 13.60Q314.19 13.60 315.03 13.98Q315.86 14.35 316.32 15.06Q316.78 15.76 316.78 16.71L316.78 16.71Q316.78 17.62 316.35 18.30Q315.92 18.98 315.13 19.36L315.13 19.36L316.94 22L314.40 22L312.88 19.77L311.58 19.77L311.58 22ZM311.58 15.47L311.58 17.93L312.90 17.93Q313.63 17.93 314.00 17.61Q314.38 17.29 314.38 16.71L314.38 16.71Q314.38 16.12 314.00 15.79Q313.63 15.47 312.90 15.47L312.90 15.47L311.58 15.47ZM328.31 22L321.56 22L321.56 13.60L328.16 13.60L328.16 15.44L323.92 15.44L323.92 16.85L327.65 16.85L327.65 18.63L323.92 18.63L323.92 20.17L328.31 20.17L328.31 22ZM332.53 21.24L332.53 21.24L333.31 19.49Q333.87 19.86 334.61 20.09Q335.36 20.32 336.08 20.32L336.08 20.32Q337.44 20.32 337.45 19.64L337.45 19.64Q337.45 19.28 337.06 19.11Q336.67 18.93 335.80 18.74L335.80 18.74Q334.85 18.53 334.22 18.30Q333.58 18.06 333.13 17.55Q332.67 17.03 332.67 16.16L332.67 16.16Q332.67 15.39 333.09 14.77Q333.51 14.15 334.35 13.79Q335.18 13.43 336.39 13.43L336.39 13.43Q337.21 13.43 338.02 13.62Q338.83 13.80 339.44 14.17L339.44 14.17L338.71 15.93Q337.51 15.28 336.38 15.28L336.38 15.28Q335.67 15.28 335.35 15.49Q335.02 15.70 335.02 16.04L335.02 16.04Q335.02 16.37 335.41 16.54Q335.79 16.71 336.64 16.89L336.64 16.89Q337.60 17.10 338.23 17.33Q338.86 17.56 339.32 18.07Q339.79 18.58 339.79 19.46L339.79 19.46Q339.79 20.21 339.37 20.83Q338.95 21.44 338.11 21.80Q337.27 22.17 336.07 22.17L336.07 22.17Q335.05 22.17 334.09 21.92Q333.13 21.67 332.53 21.24ZM343.78 21.24L343.78 21.24L344.56 19.49Q345.12 19.86 345.86 20.09Q346.61 20.32 347.33 20.32L347.33 20.32Q348.69 20.32 348.70 19.64L348.70 19.64Q348.70 19.28 348.31 19.11Q347.92 18.93 347.05 18.74L347.05 18.74Q346.10 18.53 345.47 18.30Q344.83 18.06 344.38 17.55Q343.92 17.03 343.92 16.16L343.92 16.16Q343.92 15.39 344.34 14.77Q344.76 14.15 345.60 13.79Q346.43 13.43 347.64 13.43L347.64 13.43Q348.46 13.43 349.27 13.62Q350.08 13.80 350.69 14.17L350.69 14.17L349.96 15.93Q348.76 15.28 347.63 15.28L347.63 15.28Q346.92 15.28 346.60 15.49Q346.27 15.70 346.27 16.04L346.27 16.04Q346.27 16.37 346.66 16.54Q347.04 16.71 347.89 16.89L347.89 16.89Q348.85 17.10 349.48 17.33Q350.11 17.56 350.57 18.07Q351.04 18.58 351.04 19.46L351.04 19.46Q351.04 20.21 350.62 20.83Q350.20 21.44 349.36 21.80Q348.52 22.17 347.32 22.17L347.32 22.17Q346.30 22.17 345.34 21.92Q344.38 21.67 343.78 21.24ZM357.99 22L355.61 22L355.61 13.60L357.99 13.60L357.99 22ZM362.74 17.80L362.74 17.80Q362.74 16.55 363.34 15.55Q363.95 14.56 365.01 14.00Q366.07 13.43 367.40 13.43L367.40 13.43Q368.73 13.43 369.80 14.00Q370.86 14.56 371.47 15.55Q372.07 16.55 372.07 17.80L372.07 17.80Q372.07 19.05 371.47 20.04Q370.86 21.04 369.80 21.60Q368.74 22.17 367.40 22.17L367.40 22.17Q366.07 22.17 365.01 21.60Q363.95 21.04 363.34 20.04Q362.74 19.05 362.74 17.80ZM365.13 17.80L365.13 17.80Q365.13 18.51 365.44 19.05Q365.74 19.60 366.25 19.90Q366.77 20.20 367.40 20.20L367.40 20.20Q368.04 20.20 368.56 19.90Q369.07 19.60 369.37 19.05Q369.67 18.51 369.67 17.80L369.67 17.80Q369.67 17.09 369.37 16.54Q369.07 16 368.56 15.70Q368.04 15.40 367.40 15.40L367.40 15.40Q366.76 15.40 366.25 15.70Q365.74 16 365.44 16.54Q365.13 17.09 365.13 17.80ZM379.13 22L376.80 22L376.80 13.60L378.76 13.60L382.47 18.07L382.47 13.60L384.79 13.60L384.79 22L382.84 22L379.13 17.52L379.13 22Z" fill="#FFFFFF" x="196.07"/></svg>